<?xml version="1.0" encoding="utf-8"?>
<!-- Generator: Adobe Illustrator 16.0.0, SVG Export Plug-In . SVG Version: 6.00 Build 0)  -->
<!DOCTYPE svg PUBLIC "-//W3C//DTD SVG 1.1//EN" "http://www.w3.org/Graphics/SVG/1.1/DTD/svg11.dtd">
<svg version="1.1" id="Layer_1" xmlns="http://www.w3.org/2000/svg" xmlns:xlink="http://www.w3.org/1999/xlink" x="0px" y="0px"
	 width="346px" height="157px" viewBox="0 0 346 157" enable-background="new 0 0 346 157" xml:space="preserve">
<g>
	<path fill-rule="evenodd" clip-rule="evenodd" fill="#86A20B" d="M20.343,36.012l97.979-10.21l10.317,97.136
		c0.461,4.346-2.72,8.275-7.067,8.727l-90.098,9.393c-4.348,0.453-8.283-2.732-8.743-7.08L13.275,44.74
		C12.814,40.394,15.995,36.466,20.343,36.012L20.343,36.012z M52.612,102.379c-0.798,0-1.72-0.088-3.022-0.35
		c-0.873-0.16-1.609-0.65-2.087-1.342c-0.471-0.697-0.612-1.547-0.395-2.348l4.368-16.82c-0.542,0.1-1.019,0.281-1.417,0.555
		c-0.872,0.605-1.342,1.639-1.318,2.889c0.022,1.68-1.377,3.061-3.161,3.07c-1.778,0.047-3.238-1.279-3.268-2.98
		c-0.046-3.219,1.375-6.08,3.932-7.869c2.775-1.918,6.394-2.328,10.213-1.137c1.596,0.505,2.521,2.074,2.121,3.619l-4.287,16.447
		c0.632-0.09,1.466-0.182,2.575-0.242c1.779-0.098,3.292,1.184,3.4,2.846c0.096,1.682-1.261,3.117-3.029,3.225
		c-1.104,0.045-1.813,0.145-2.444,0.24C54.025,102.291,53.372,102.379,52.612,102.379L52.612,102.379z M84.693,102.609h-0.17
		c-1.77-0.092-3.146-1.512-3.044-3.182l0.311-5.676c0.076-1.557,1.394-2.779,3.035-2.871c3.749-0.18,6.541-1.492,7.674-3.588
		c0.728-1.363,0.655-2.918-0.157-4.109c-0.958-1.383-2.789-2.061-5.158-1.926c-1.771,0.102-3.299-1.164-3.407-2.828
		c-0.104-1.68,1.242-3.117,3.015-3.223c4.685-0.279,8.663,1.419,10.91,4.637c2.083,3,2.292,6.91,0.537,10.174
		c-1.848,3.438-5.462,5.756-10.174,6.602l-0.169,3.119C87.805,101.352,86.387,102.609,84.693,102.609L84.693,102.609z
		 M75.873,103.053c-1.667,0-3.09-1.234-3.206-2.822c-0.162-2.297-0.296-5.367-0.191-8.713c-0.99,0.266-1.997,0.531-3.04,0.816
		c-0.064,2.787-0.274,5.463-0.567,7.793c-0.223,1.646-1.814,2.846-3.582,2.646c-1.762-0.215-3.013-1.709-2.805-3.389
		c0.234-1.768,0.389-3.57,0.468-5.361c-0.444,0.125-0.911,0.232-1.372,0.34c-1.716,0.408-3.469-0.563-3.901-2.176
		c-0.446-1.623,0.589-3.291,2.309-3.719c1.016-0.24,1.997-0.477,2.972-0.732c-0.189-3.953-0.763-7.387-1.696-9.641
		c-0.635-1.563,0.18-3.315,1.839-3.92c1.657-0.603,3.518,0.165,4.154,1.725c1.151,2.816,1.778,6.4,2.046,10.15
		C70.557,85.723,71.78,85.402,73,85.1c0.441-3.145,1.188-6.23,2.387-8.867c0.708-1.539,2.595-2.24,4.226-1.573
		c1.626,0.669,2.379,2.452,1.67,3.991c-0.634,1.387-1.142,3.059-1.533,5.014c1.815-0.314,3.618-0.543,5.449-0.662
		c1.779-0.121,3.29,1.146,3.421,2.811c0.111,1.66-1.223,3.115-2.989,3.236c-2.187,0.135-4.4,0.471-6.66,0.945
		c-0.178,2.998-0.136,6.311,0.112,9.818c0.12,1.678-1.217,3.117-2.988,3.24H75.873L75.873,103.053z M93.961,103.381
		c-1.438,0-2.746-0.926-3.103-2.303c-0.435-1.619,0.597-3.266,2.322-3.676c5.141-1.225,8.657-4.314,9.932-8.652
		c1.35-4.635-0.087-9.824-3.683-13.213c-3.734-3.522-9.248-4.537-15.54-2.904c-1.305,0.335-2.693-0.144-3.469-1.177
		c-0.788-1.034-0.799-2.44-0.024-3.48c2.233-3.034,2.729-7.465,1.35-11.866c-1.649-5.192-5.562-9.444-10.853-11.787
		c-5.291,2.343-9.213,6.595-10.857,11.787c-1.383,4.401-0.887,8.832,1.347,11.866c0.788,1.04,0.773,2.459-0.028,3.505
		c-0.804,1.049-2.217,1.497-3.518,1.135c-10.76-3.028-16.957,1.592-19.181,6.901c-2.111,5.074-1.149,11.951,4.784,14.738
		c1.599,0.736,2.239,2.557,1.443,4.074c-0.783,1.482-2.721,2.094-4.296,1.359c-8.228-3.875-11.618-13.484-7.91-22.399
		c2.654-6.352,9.527-12.544,20.745-11.629c-0.877-3.513-0.751-7.45,0.465-11.294c2.311-7.32,8.031-13.21,15.702-16.111
		c0.427-0.185,0.875-0.244,1.302-0.23c0.434-0.014,0.874,0.046,1.301,0.23c7.676,2.901,13.392,8.791,15.706,16.111
		c1.235,3.908,1.348,7.903,0.419,11.444c6.122-0.292,11.545,1.557,15.656,5.43c5.2,4.902,7.285,12.424,5.333,19.148
		c-1.879,6.424-7.188,11.133-14.56,12.883C94.484,103.352,94.228,103.381,93.961,103.381L93.961,103.381z M70.993,130.695h-0.099
		c-0.472,0.012-0.952-0.063-1.425-0.281c-5.139-2.191-8.499-5.625-9.465-9.646c-0.262-1.148-0.34-2.314-0.217-3.453
		c-2.3-0.121-3.932-0.953-4.927-1.637c-2.85-2.008-4.292-5.654-3.675-9.313c0.28-1.67,1.922-2.791,3.675-2.531
		c1.749,0.268,2.946,1.813,2.666,3.484c-0.236,1.406,0.24,2.846,1.165,3.49c1.393,0.969,3.725,0.146,4.992-0.443
		c1.361-0.615,3.013-0.252,3.946,0.883c0.928,1.133,0.88,2.746-0.101,3.826c-1.158,1.287-1.61,2.834-1.25,4.363
		c0.449,1.844,2.062,3.553,4.617,4.881c2.59-1.344,4.212-3.037,4.649-4.881c0.361-1.471-0.084-2.984-1.235-4.252
		c-0.989-1.123-1.017-2.748-0.042-3.879c0.974-1.131,2.659-1.463,4.02-0.771c1.916,0.971,3.399,1.076,4.436,0.305
		c1.108-0.838,1.413-2.33,1.298-2.756c-0.642-1.57,0.185-3.311,1.839-3.912c1.662-0.598,3.521,0.178,4.17,1.75
		c1.175,2.904-0.119,7.023-2.958,9.387c-0.842,0.707-2.553,1.844-5.027,2.07c0.115,1.119,0.041,2.268-0.223,3.389
		c-0.957,4.021-4.333,7.447-9.513,9.646C71.878,130.613,71.432,130.695,70.993,130.695L70.993,130.695z"/>
	<path fill="#86A20B" d="M127.876,52.804l10.101-18.063c0.922-1.603,1.758-2.593,1.758-2.593l-0.008-0.075c0,0-0.774,0.158-2,0.286
		l-6.399,0.672c-0.521,0.056-0.787,0.383-0.731,0.905l0.167,1.599l-4.427,0.466l-0.422-4.019c-0.185-1.748,0.477-2.607,2.265-2.795
		l17.149-1.802l0.32,3.05l-10.097,18.101c-0.917,1.638-1.758,2.591-1.758,2.591l0.008,0.074c0,0,0.773-0.155,2.002-0.285
		l7.216-0.759c0.522-0.054,0.788-0.384,0.732-0.904l-0.168-1.6l4.39-0.461l0.422,4.019c0.188,1.785-0.477,2.609-2.263,2.796
		l-17.932,1.885L127.876,52.804L127.876,52.804z M149.876,39.169c-0.247-0.539-0.555-0.618-1.114-0.56l-0.52,0.055l-0.423-4.019
		l3.237-0.339c1.562-0.165,2.358,0.24,2.881,1.652l3.897,10.235c0.365,0.977,0.583,1.969,0.583,1.969l0.074-0.007
		c0,0,0.043-1.021,0.236-2.055l2.196-12.756l4.167-0.439l4.835,12.018c0.404,0.973,0.621,1.964,0.621,1.964l0.074-0.006
		c0,0,0.006-1.016,0.161-2.047l1.646-10.818c0.22-1.49,0.914-2.052,2.475-2.217l3.237-0.34l0.423,4.019l-0.521,0.054
		c-0.56,0.059-0.806,0.198-0.971,0.78l-3.038,14.762l-5.319,0.56l-4.375-10.486c-0.403-0.974-0.662-2.001-0.662-2.001l-0.075,0.008
		c0,0-0.077,1.063-0.268,2.099l-2.062,11.162l-5.358,0.564L149.876,39.169L149.876,39.169z M181.188,23.617l4.092-0.43l0.458,4.353
		l-4.091,0.429L181.188,23.617L181.188,23.617z M182.257,35.916c-0.06-0.558-0.384-0.786-0.906-0.731l-1.488,0.158l-0.421-4.019
		l4.501-0.474c1.749-0.184,2.575,0.52,2.76,2.268l1.224,11.645c0.054,0.521,0.382,0.787,0.903,0.733l1.488-0.158l0.418,3.982
		l-4.501,0.473c-1.748,0.185-2.57-0.482-2.759-2.267L182.257,35.916L182.257,35.916z M200.144,45.058
		c2.529-0.265,4.033-3.133,3.791-5.439l-0.047-0.447l-0.818,0.087c-2.457,0.257-6.322,1.04-6.05,3.643
		C197.152,44.168,198.207,45.261,200.144,45.058L200.144,45.058z M202.952,35.999l0.521-0.055l-0.015-0.149
		c-0.286-2.717-1.471-3.608-3.891-3.352c-0.854,0.09-2.504,0.488-2.395,1.531l0.105,1.004l-4.391,0.461l-0.211-2.009
		c-0.366-3.498,4.575-4.431,6.547-4.638c6.325-0.666,8.531,2.452,8.977,6.691l0.745,7.069c0.054,0.52,0.384,0.787,0.903,0.731
		l1.487-0.155l0.421,3.982c-0.646,0.668-1.893,2.04-1.779,3.12c0.125,1.19,1.964,1.148,1.964,1.148l-0.749,3.614
		c0,0-4.619,0.071-4.952-3.091c-0.198-1.897,1.038-3.379,2.026-4.349l-0.008-0.075l-0.931,0.097
		c-1.673,0.176-2.386-0.876-2.477-1.732l-0.019-0.187c-0.045-0.408-0.004-0.751-0.004-0.751l-0.075,0.008
		c0,0-1.025,3.493-5.451,3.959c-3.46,0.362-6.634-1.562-7.021-5.245C191.652,37.638,199.789,36.332,202.952,35.999L202.952,35.999z
		 M213.2,44.4l7.621-11.598c0.742-1.169,1.414-1.915,1.414-1.915l-0.007-0.075c0,0-0.55,0.133-1.741,0.258l-3.421,0.36
		c-0.522,0.054-0.789,0.384-0.733,0.904l0.113,1.08l-4.278,0.45l-0.355-3.386c-0.184-1.749,0.479-2.608,2.263-2.795l13.915-1.463
		l0.271,2.566l-7.621,11.597c-0.746,1.133-1.417,1.917-1.417,1.917l0.008,0.075c0,0,0.547-0.171,1.775-0.301l4.166-0.438
		c0.521-0.055,0.792-0.345,0.733-0.902l-0.11-1.043l4.278-0.45l0.352,3.349c0.188,1.785-0.478,2.606-2.225,2.791l-14.733,1.548
		L213.2,44.4L213.2,44.4z M244.241,31.622c-0.313-2.262-2.04-3.66-3.974-3.457c-2.419,0.254-3.978,1.886-4.247,4.32L244.241,31.622
		L244.241,31.622z M239.884,24.517c5.432-0.569,8.827,3.099,9.354,8.121c0.059,0.558,0.072,1.76,0.072,1.76l-13.096,1.376
		c0.725,3.311,3.363,4.8,6.228,4.499c3.051-0.32,5.098-2.68,5.098-2.68l2.316,3.067c0,0-2.603,3.171-7.326,3.668
		c-6.287,0.66-10.671-3.469-11.237-8.864C230.679,29.622,234.192,25.116,239.884,24.517L239.884,24.517z M252.492,21.012
		c-0.06-0.558-0.384-0.787-0.906-0.733l-1.486,0.156l-0.423-4.016l4.501-0.475c1.748-0.183,2.573,0.144,2.757,1.892l1.26,11.979
		l1.413-0.149c0.595-0.062,1.365-0.254,1.71-0.894l3.241-6.396l5.246-0.551l-4.049,7.647c-0.694,1.277-1.258,1.637-1.258,1.637
		l0.008,0.075c0,0,0.697,0.19,1.496,1.346l2.589,3.867c0.354,0.526,0.742,0.635,1.635,0.542l1.267-0.133l0.417,3.982l-3.496,0.366
		c-1.601,0.169-2.261-0.023-3.149-1.324l-3.788-5.619c-0.441-0.631-1.226-0.587-1.821-0.524l-1.041,0.11l0.872,8.297l-4.725,0.496
		L252.492,21.012L252.492,21.012z M132.489,69.122c-0.055-0.521-0.383-0.788-0.904-0.734l-1.599,0.168l-0.435-4.129l4.762-0.5
		c1.785-0.188,2.611,0.515,2.796,2.263l0.911,8.668l11.645-1.224l-0.911-8.668c-0.185-1.749,0.514-2.612,2.263-2.795l4.762-0.501
		l0.434,4.128l-1.599,0.169c-0.521,0.055-0.788,0.383-0.734,0.905l2.256,21.467l-4.873,0.512l-1.166-11.088l-11.645,1.225
		l1.166,11.086l-4.873,0.514L132.489,69.122L132.489,69.122z M167.962,83.824c2.529-0.266,4.035-3.133,3.791-5.44l-0.046-0.446
		l-0.819,0.086c-2.456,0.259-6.326,1.004-6.049,3.645C164.972,82.936,166.027,84.027,167.962,83.824L167.962,83.824z
		 M170.697,74.772l0.594-0.063l-0.015-0.148c-0.286-2.717-1.471-3.609-3.889-3.353c-0.855,0.09-2.506,0.489-2.396,1.53l0.105,1.005
		l-4.391,0.461l-0.211-2.009c-0.37-3.534,4.575-4.431,6.547-4.638c6.325-0.666,8.532,2.452,8.979,6.691l0.743,7.07
		c0.055,0.52,0.384,0.787,0.904,0.732l1.488-0.158l0.419,3.982l-4.241,0.445c-1.748,0.184-2.521-0.713-2.638-1.828
		c-0.051-0.482-0.048-0.824-0.048-0.824l-0.075,0.008c0,0-1.1,3.502-5.376,3.953c-3.386,0.354-6.697-1.443-7.096-5.236
		C159.475,76.439,167.609,75.097,170.697,74.772L170.697,74.772z M181.883,71.339c-0.06-0.559-0.384-0.787-0.904-0.733l-1.487,0.157
		l-0.424-4.018l4.316-0.455c1.673-0.177,2.604,0.442,2.771,2.042l0.118,1.116c0.074,0.708,0.05,1.198,0.05,1.198l0.075-0.008
		c0.569-2.806,2.612-5.202,5.514-5.508c0.409-0.042,0.864-0.015,0.864-0.015l0.489,4.651c0,0-0.492-0.026-1.162,0.045
		c-2.01,0.211-4.195,1.608-4.754,4.523c-0.162,0.958-0.201,2.017-0.083,3.13l0.79,7.518l-4.688,0.492L181.883,71.339L181.883,71.339
		z M204.43,63.628c2.454-0.258,6.988,0.282,7.332,3.556l0.235,2.231l-4.167,0.438l-0.109-1.04c-0.11-1.042-1.72-1.324-2.873-1.203
		c-3.272,0.342-5.355,3.082-4.995,6.506c0.407,3.87,3.479,5.541,6.529,5.218c3.237-0.34,5.347-3.156,5.347-3.156l2.316,3.066
		c0,0-2.468,3.719-7.638,4.262c-6.251,0.658-10.734-3.348-11.313-8.854C194.531,69.295,197.92,64.312,204.43,63.628L204.43,63.628z
		 M228.058,68.706c-0.313-2.262-2.04-3.661-3.975-3.458c-2.419,0.254-3.977,1.885-4.247,4.32L228.058,68.706L228.058,68.706z
		 M223.699,61.602c5.432-0.569,8.828,3.099,9.355,8.122c0.058,0.557,0.071,1.758,0.071,1.758l-13.097,1.376
		c0.726,3.311,3.365,4.801,6.229,4.498c3.05-0.32,5.097-2.679,5.097-2.679l2.315,3.067c0,0-2.6,3.171-7.325,3.669
		c-6.287,0.66-10.671-3.469-11.236-8.863C214.495,66.708,218.008,62.2,223.699,61.602L223.699,61.602z M237.238,65.521
		c-0.06-0.559-0.384-0.788-0.904-0.732l-1.486,0.155l-0.425-4.017l4.316-0.454c1.673-0.177,2.603,0.44,2.771,2.041l0.117,1.116
		c0.075,0.708,0.051,1.199,0.051,1.199l0.075-0.009c0.569-2.805,2.612-5.203,5.513-5.507c0.41-0.042,0.865-0.016,0.865-0.016
		l0.488,4.652c0,0-0.491-0.025-1.161,0.046c-2.01,0.211-4.195,1.608-4.754,4.523c-0.162,0.958-0.202,2.015-0.083,3.13l0.789,7.517
		l-4.688,0.492L237.238,65.521L237.238,65.521z M253.492,72.013c0,0,2.711,2.537,5.948,2.197c1.45-0.153,2.503-0.866,2.371-2.131
		c-0.282-2.678-10.286-1.589-10.931-7.728c-0.399-3.794,2.839-5.904,6.782-6.317c2.566-0.271,6.75,0.156,7.074,3.243l0.207,1.973
		l-4.166,0.437l-0.098-0.929c-0.094-0.894-1.479-1.2-2.521-1.09c-1.674,0.175-2.766,0.894-2.648,2.009
		c0.314,2.977,10.333,1.321,10.997,7.646c0.376,3.572-2.553,6.137-6.68,6.571c-5.21,0.547-8.244-2.557-8.244-2.557L253.492,72.013
		L253.492,72.013z M269.936,60.993l-2.455,0.257l-0.396-3.756l2.567-0.269l-0.543-5.172l4.612-0.485l0.544,5.171l4.316-0.452
		l0.395,3.756l-4.315,0.454l0.805,7.664c0.328,3.126,2.831,3.314,4.132,3.177c0.522-0.054,0.85-0.165,0.85-0.165l0.434,4.129
		c0,0-0.584,0.175-1.439,0.265c-2.642,0.277-7.969,0.049-8.638-6.313L269.936,60.993L269.936,60.993z M282.198,60.644
		c-0.245-0.536-0.554-0.618-1.112-0.559l-0.521,0.054l-0.424-4.019l3.237-0.339c1.563-0.165,2.358,0.24,2.883,1.651l3.896,10.236
		c0.365,0.978,0.583,1.969,0.583,1.969l0.074-0.008c0,0,0.044-1.017,0.236-2.055l2.194-12.756l4.167-0.439l4.836,12.018
		c0.404,0.974,0.621,1.965,0.621,1.965l0.074-0.008c0,0,0.005-1.015,0.161-2.047l1.645-10.818c0.22-1.489,0.915-2.052,2.476-2.217
		l3.237-0.34l0.424,4.019l-0.521,0.055c-0.558,0.058-0.807,0.198-0.972,0.779l-3.037,14.762l-5.32,0.56l-4.374-10.486
		c-0.403-0.973-0.661-2-0.661-2l-0.075,0.008c0,0-0.076,1.062-0.269,2.097l-2.062,11.163l-5.356,0.564L282.198,60.644
		L282.198,60.644z M321.156,67.722c2.529-0.266,4.035-3.133,3.791-5.439l-0.047-0.447l-0.817,0.086
		c-2.457,0.258-6.327,1.004-6.049,3.644C318.166,66.833,319.222,67.925,321.156,67.722L321.156,67.722z M323.892,58.67l0.594-0.062
		l-0.014-0.147c-0.286-2.718-1.472-3.609-3.89-3.354c-0.855,0.089-2.506,0.49-2.396,1.532l0.105,1.004l-4.391,0.459l-0.212-2.008
		c-0.37-3.534,4.575-4.432,6.547-4.638c6.325-0.664,8.532,2.453,8.979,6.693l0.744,7.07c0.054,0.519,0.383,0.785,0.904,0.73
		l1.487-0.156l0.419,3.982l-4.241,0.446c-1.748,0.183-2.52-0.714-2.638-1.83c-0.05-0.484-0.049-0.824-0.049-0.824l-0.075,0.008
		c0,0-1.099,3.502-5.376,3.952c-3.386,0.355-6.695-1.441-7.095-5.236C312.671,60.338,320.804,58.994,323.892,58.67L323.892,58.67z
		 M145.809,111.379c2.752-0.289,4.127-2.238,3.837-4.992c-0.285-2.717-2.032-4.299-4.709-4.018l-3.982,0.418l0.946,9.004
		L145.809,111.379L145.809,111.379z M136.082,103.301l-2.418,0.252l-0.434-4.129l12.092-1.271c4.948-0.52,8.771,2.576,9.31,7.709
		c0.542,5.137-2.542,9.07-7.492,9.592l-4.799,0.504l0.958,9.115l-4.875,0.512L136.082,103.301L136.082,103.301z M167.698,118.896
		c3.088-0.326,5.405-2.977,5.034-6.51c-0.368-3.498-3.19-5.648-6.276-5.322c-3.052,0.322-5.365,3.01-4.996,6.506
		C161.831,117.105,164.648,119.217,167.698,118.896L167.698,118.896z M166.032,103.047c5.805-0.609,10.852,3.035,11.462,8.84
		c0.612,5.84-3.568,10.418-9.374,11.027c-5.765,0.605-10.81-3.002-11.424-8.842C156.086,108.268,160.267,103.652,166.032,103.047
		L166.032,103.047z M180.091,99.389c-0.06-0.559-0.384-0.789-0.905-0.734l-1.486,0.158l-0.424-4.018l4.501-0.475
		c1.749-0.182,2.614,0.516,2.797,2.264l2.007,19.086c0.055,0.521,0.383,0.787,0.903,0.73l1.45-0.15l0.419,3.98l-4.463,0.469
		c-1.787,0.188-2.609-0.477-2.795-2.264L180.091,99.389L180.091,99.389z M192.737,113.781c0,0,2.711,2.537,5.948,2.195
		c1.45-0.15,2.503-0.861,2.371-2.129c-0.282-2.678-10.285-1.59-10.931-7.729c-0.399-3.793,2.84-5.904,6.782-6.318
		c2.568-0.27,6.75,0.158,7.074,3.244l0.207,1.973l-4.166,0.438l-0.098-0.928c-0.094-0.895-1.48-1.199-2.521-1.09
		c-1.674,0.176-2.767,0.891-2.648,2.006c0.314,2.979,10.332,1.322,10.998,7.648c0.375,3.572-2.553,6.135-6.683,6.568
		c-5.209,0.549-8.243-2.555-8.243-2.555L192.737,113.781L192.737,113.781z M208.29,96.424c-0.06-0.559-0.385-0.787-0.905-0.732
		l-1.488,0.156l-0.423-4.018l4.502-0.475c1.748-0.182,2.572,0.146,2.756,1.895l1.26,11.979l1.413-0.15
		c0.597-0.061,1.366-0.256,1.713-0.893l3.238-6.396l5.247-0.553l-4.049,7.648c-0.693,1.277-1.258,1.637-1.258,1.637l0.008,0.074
		c0,0,0.697,0.189,1.496,1.348l2.588,3.865c0.355,0.527,0.742,0.635,1.637,0.543l1.264-0.135l0.419,3.982l-3.496,0.367
		c-1.601,0.168-2.261-0.025-3.149-1.324l-3.788-5.619c-0.442-0.631-1.227-0.586-1.821-0.523l-1.041,0.109l0.871,8.297l-4.724,0.496
		L208.29,96.424L208.29,96.424z M228.874,89.371l4.091-0.43l0.459,4.354l-4.092,0.43L228.874,89.371L228.874,89.371z
		 M229.941,101.672c-0.058-0.561-0.384-0.787-0.905-0.734l-1.488,0.158l-0.422-4.018l4.501-0.475c1.75-0.184,2.576,0.52,2.76,2.27
		l1.224,11.643c0.055,0.523,0.383,0.787,0.904,0.734l1.488-0.158l0.417,3.98l-4.501,0.475c-1.747,0.184-2.569-0.484-2.758-2.268
		L229.941,101.672L229.941,101.672z M252.456,101.523c-0.313-2.26-2.041-3.658-3.975-3.455c-2.42,0.254-3.978,1.887-4.248,4.318
		L252.456,101.523L252.456,101.523z M248.099,94.42c5.432-0.568,8.827,3.1,9.354,8.121c0.059,0.557,0.072,1.76,0.072,1.76
		l-13.097,1.375c0.725,3.311,3.364,4.801,6.229,4.498c3.051-0.32,5.097-2.678,5.097-2.678l2.317,3.068c0,0-2.603,3.168-7.326,3.666
		c-6.287,0.66-10.672-3.469-11.237-8.863C238.894,99.525,242.406,95.018,248.099,94.42L248.099,94.42z M274.132,101.277
		c-0.454-4.316-2.731-5.244-5.3-4.973c-2.864,0.301-4.207,2.549-3.871,5.748c0.35,3.313,2.28,5.59,5.331,5.27
		C272.562,107.084,274.583,105.555,274.132,101.277L274.132,101.277z M267.592,92.373c4.39-0.461,6.123,2.066,6.123,2.066
		l0.073-0.01c0,0-0.023-0.221-0.051-0.484c-0.09-0.854,0.412-1.811,1.9-1.969l4.391-0.459l0.422,4.018l-1.452,0.152
		c-0.483,0.051-0.79,0.346-0.739,0.83l1.372,13.059c0.684,6.51-4.118,9.498-9.064,10.018c-2.382,0.25-4.98-0.154-6.906-0.93
		l1.06-3.871c0,0,2.477,1.016,5.377,0.711c2.866-0.301,5.229-1.789,4.871-5.213l-0.094-0.893c-0.049-0.447-0.068-1.01-0.068-1.01
		l-0.075,0.008c-0.948,1.719-2.494,2.746-5.023,3.012c-5.433,0.572-8.982-3.494-9.53-8.703S262.124,92.947,267.592,92.373
		L267.592,92.373z M293.996,105.619c3.088-0.324,5.405-2.973,5.033-6.508c-0.367-3.496-3.189-5.646-6.276-5.322
		c-3.051,0.322-5.364,3.01-4.995,6.508C288.128,103.832,290.946,105.939,293.996,105.619L293.996,105.619z M292.33,89.771
		c5.805-0.609,10.852,3.035,11.462,8.84c0.613,5.84-3.569,10.418-9.374,11.027c-5.767,0.607-10.81-3.002-11.424-8.842
		C282.384,94.992,286.563,90.377,292.33,89.771L292.33,89.771z"/>
</g>
</svg>
